HIERARCHY
ROOT hip
{
  OFFSET 0 0 0
  CHANNELS 6 Xposition Yposition Zposition Zrotation Yrotation Xrotation
  JOINT abdomen
  {
    OFFSET 0 20.6881 -0.73152
    CHANNELS 3 Zrotation Xrotation Yrotation
    JOINT chest
    {
      OFFSET 0 11.7043 -0.48768
      CHANNELS 3 Zrotation Xrotation Yrotation
      JOINT neck
      {
        OFFSET 0 22.1894 -2.19456
        CHANNELS 3 Zrotation Xrotation Yrotation
        JOINT head
        {
          OFFSET -0.24384 7.07133 1.2192
          CHANNELS 3 Zrotation Xrotation Yrotation
          JOINT leftEye
          {
            OFFSET 4.14528 8.04674 8.04672
            CHANNELS 3 Zrotation Xrotation Yrotation
            End Site
            {
              OFFSET 1 0 0
            }
          }
          JOINT rightEye
          {
            OFFSET -3.6576 8.04674 8.04672
            CHANNELS 3 Zrotation Xrotation Yrotation
            End Site
            {
              OFFSET 1 0 0
            }
          }
        }
      }
      JOINT rCollar
      {
        OFFSET -2.68224 19.2634 -4.8768
        CHANNELS 3 Zrotation Xrotation Yrotation
        JOINT rShldr
        {
          OFFSET -8.77824 -1.95073 1.46304
          CHANNELS 3 Zrotation Xrotation Yrotation
          JOINT rForeArm
          {
            OFFSET -28.1742 -1.7115 0.48768
            CHANNELS 3 Zrotation Xrotation Yrotation
            JOINT rHand
            {
              OFFSET -22.5879 0.773209 7.07136
              CHANNELS 3 Zrotation Xrotation Yrotation
              JOINT rThumb1
              {
                OFFSET -1.2192 -0.487915 3.41376
                CHANNELS 3 Zrotation Xrotation Yrotation
                JOINT rThumb2
                {
                  OFFSET -3.37035 -0.52449 3.41376
                  CHANNELS 3 Zrotation Xrotation Yrotation
                  End Site
                  {
                    OFFSET -1.78271 -1.18214 1.43049
                  }
                }
              }
              JOINT rIndex1
              {
                OFFSET -7.75947 0.938293 5.60832
                CHANNELS 3 Zrotation Xrotation Yrotation
                JOINT rIndex2
                {
                  OFFSET -2.54057 -0.884171 1.56538
                  CHANNELS 3 Zrotation Xrotation Yrotation
                  End Site
                  {
                    OFFSET -1.62519 -0.234802 1.16502
                  }
                }
              }
              JOINT rMid1
              {
                OFFSET -8.24714 1.18213 3.41376
                CHANNELS 3 Zrotation Xrotation Yrotation
                JOINT rMid2
                {
                  OFFSET -3.10165 -0.590103 1.0647
                  CHANNELS 3 Zrotation Xrotation Yrotation
                  End Site
                  {
                    OFFSET -2.48547 -0.328903 0.83742
                  }
                }
              }
              JOINT rRing1
              {
                OFFSET -8.82822 0.546677 1.51678
                CHANNELS 3 Zrotation Xrotation Yrotation
                JOINT rRing2
                {
                  OFFSET -2.60934 -0.819778 -0.0198488
                  CHANNELS 3 Zrotation Xrotation Yrotation
                  End Site
                  {
                    OFFSET -2.33842 -0.294052 0.168128
                  }
                }
              }
              JOINT rPinky1
              {
                OFFSET -8.27202 -0.0477905 -0.4584
                CHANNELS 3 Zrotation Xrotation Yrotation
                JOINT rPinky2
                {
                  OFFSET -1.82734 -0.647385 -0.700984
                  CHANNELS 3 Zrotation Xrotation Yrotation
                  End Site
                  {
                    OFFSET -1.69225 -0.51767 -0.607171
                  }
                }
              }
            }
          }
        }
      }
      JOINT lCollar
      {
        OFFSET 2.68224 19.2634 -4.8768
        CHANNELS 3 Zrotation Xrotation Yrotation
        JOINT lShldr
        {
          OFFSET 8.77824 -1.95073 1.46304
          CHANNELS 3 Zrotation Xrotation Yrotation
          JOINT lForeArm
          {
            OFFSET 28.1742 -1.7115 0.48768
            CHANNELS 3 Zrotation Xrotation Yrotation
            JOINT lHand
            {
              OFFSET 22.5879 0.773209 7.07136
              CHANNELS 3 Zrotation Xrotation Yrotation
              JOINT lThumb1
              {
                OFFSET 1.2192 -0.487915 3.41376
                CHANNELS 3 Zrotation Xrotation Yrotation
                JOINT lThumb2
                {
                  OFFSET 3.37035 -0.52449 3.41376
                  CHANNELS 3 Zrotation Xrotation Yrotation
                  End Site
                  {
                    OFFSET 1.78271 -1.18214 1.43049
                  }
                }
              }
              JOINT lIndex1
              {
                OFFSET 7.75947 0.938293 5.60832
                CHANNELS 3 Zrotation Xrotation Yrotation
                JOINT lIndex2
                {
                  OFFSET 2.54057 -0.884171 1.56538
                  CHANNELS 3 Zrotation Xrotation Yrotation
                  End Site
                  {
                    OFFSET 1.62519 -0.234802 1.16502
                  }
                }
              }
              JOINT lMid1
              {
                OFFSET 8.24714 1.18213 3.41376
                CHANNELS 3 Zrotation Xrotation Yrotation
                JOINT lMid2
                {
                  OFFSET 3.10165 -0.590103 1.0647
                  CHANNELS 3 Zrotation Xrotation Yrotation
                  End Site
                  {
                    OFFSET 2.48547 -0.328903 0.83742
                  }
                }
              }
              JOINT lRing1
              {
                OFFSET 8.82822 0.546677 1.51678
                CHANNELS 3 Zrotation Xrotation Yrotation
                JOINT lRing2
                {
                  OFFSET 2.60934 -0.819778 -0.0198488
                  CHANNELS 3 Zrotation Xrotation Yrotation
                  End Site
                  {
                    OFFSET 2.33842 -0.294052 0.168128
                  }
                }
              }
              JOINT lPinky1
              {
                OFFSET 8.27202 -0.0477905 -0.4584
                CHANNELS 3 Zrotation Xrotation Yrotation
                JOINT lPinky2
                {
                  OFFSET 1.82734 -0.647385 -0.700984
                  CHANNELS 3 Zrotation Xrotation Yrotation
                  End Site
                  {
                    OFFSET 1.69225 -0.51767 -0.607171
                  }
                }
              }
            }
          }
        }
      }
    }
  }
  JOINT rButtock
  {
    OFFSET -8.77824 4.35084 1.2192
    CHANNELS 3 Zrotation Xrotation Yrotation
    JOINT rThigh
    {
      OFFSET 0 -1.70687 -2.19456
      CHANNELS 3 Zrotation Xrotation Yrotation
      JOINT rShin
      {
        OFFSET 0 -36.8199 0.73152
        CHANNELS 3 Zrotation Xrotation Yrotation
        JOINT rFoot
        {
          OFFSET 0.73152 -45.1104 -5.12064
          CHANNELS 3 Zrotation Xrotation Yrotation
          End Site
          {
            OFFSET -1.1221 -3.69964 12.103
          }
        }
      }
    }
  }
  JOINT lButtock
  {
    OFFSET 8.77824 4.35084 1.2192
    CHANNELS 3 Zrotation Xrotation Yrotation
    JOINT lThigh
    {
      OFFSET 0 -1.70687 -2.19456
      CHANNELS 3 Zrotation Xrotation Yrotation
      JOINT lShin
      {
        OFFSET 0 -36.8199 0.73152
        CHANNELS 3 Zrotation Xrotation Yrotation
        JOINT lFoot
        {
          OFFSET -0.73152 -45.1104 -5.12064
          CHANNELS 3 Zrotation Xrotation Yrotation
          End Site
          {
            OFFSET 1.1221 -3.69964 12.103
          }
        }
      }
    }
  }
}
MOTION
Frames:	6
Frame Time:	0.00833333
11.0623 81.2313 -33.9053 179.592 -1.0642 -188.711 9.2842 19.0953 -2.28912 3.18455 -6.50031 -0.264374 -2.19338 1.7174 -0.731532 -4.05113 -0.685792 0.0242011 -0.0 0.0 0.0 -0.0 0.0 0.0 -4.68287e-15 7.2733e-14 7.75051e-14 43.7405 7.52241 -34.0002 -24.0726 -19.2286 49.8648 -0.0793925 -7.9899 -1.13037 -6.95579e-10 1.58307e-09 9.05481e-10 -1.21081e-09 2.7444e-09 1.56467e-09 -6.95577e-10 1.58307e-09 9.05472e-10 7.73091 5.47488 0.417314 -6.9558e-10 1.58307e-09 9.05481e-10 2.90554 0.965183 0.102902 -6.95573e-10 1.58307e-09 9.05479e-10 10.2786 0.731801 0.0259123 -6.95585e-10 1.58307e-09 9.05492e-10 2.22167 -0.733487 -0.20892 -4.64682e-15 7.27494e-14 7.74266e-14 -28.2837 -2.14666 33.6701 28.2515 -38.9564 -82.0437 0.0971564 -8.84729 1.25351 1.74211e-10 1.97779e-09 -1.10841e-09 3.08733e-10 3.43389e-09 -1.91624e-09 1.74217e-10 1.9778e-09 -1.10839e-09 -7.73091 5.47488 -0.417314 1.74211e-10 1.97779e-09 -1.10841e-09 -2.90554 0.965183 -0.102902 1.7421e-10 1.97779e-09 -1.1084e-09 -10.2786 0.731801 -0.0259123 1.74215e-10 1.97779e-09 -1.10841e-09 -2.22167 -0.733487 0.20892 -2.03217e-16 0.0 -3.88251e-19 0.54382 -28.1514 10.5005 -0.2536 39.7369 0.770748 1.70737 18.0193 -6.61132 2.03217e-16 0.0 3.88251e-19 9.47083 -31.6033 9.09837 0.472141 45.2698 -0.857235 -0.379661 -0.369049 -5.68918
10.8925 79.4418 -36.2175 179.558 -0.4367 -188.954 9.23759 18.6691 -1.7774 3.12522 -6.49582 0.0845341 -2.33098 1.78083 -0.480607 -3.89415 -1.13267 -0.308542 -0.0 0.0 0.0 -0.0 0.0 0.0 1.27105e-16 -1.76841e-14 7.35628e-14 46.6565 6.36555 -34.3297 -24.2641 -19.5953 50.4736 -0.0843097 -8.22913 -1.1647 -3.30903e-10 1.54925e-10 9.43249e-11 -5.73241e-10 2.67751e-10 1.63281e-10 -3.30898e-10 1.54923e-10 9.43179e-11 7.73091 5.47488 0.417314 -3.30903e-10 1.54923e-10 9.43239e-11 2.90554 0.965183 0.102902 -3.30894e-10 1.54924e-10 9.43238e-11 10.2786 0.731801 0.0259123 -3.30906e-10 1.54925e-10 9.43358e-11 2.22167 -0.733487 -0.20892 1.43074e-16 -1.76749e-14 7.34261e-14 -30.8051 -3.12115 36.0122 28.0107 -40.6557 -84.9304 0.0943489 -8.70209 1.23266 -4.49537e-10 -6.46608e-11 -4.75163e-10 -7.72505e-10 -9.76159e-11 -8.25962e-10 -4.49528e-10 -6.46554e-11 -4.75145e-10 -7.73091 5.47488 -0.417314 -4.49534e-10 -6.46559e-11 -4.7516e-10 -2.90554 0.965183 -0.102902 -4.4954e-10 -6.46563e-11 -4.75156e-10 -10.2786 0.731801 -0.0259123 -4.49534e-10 -6.46557e-11 -4.75163e-10 -2.22167 -0.733487 0.20892 -2.03217e-16 0.0 -3.88251e-19 0.728827 -27.3899 10.4933 -0.300373 41.4532 0.801334 2.09088 16.4805 -9.0845 2.03217e-16 0.0 3.88251e-19 9.06258 -31.2424 8.75469 0.496853 46.1115 -0.883173 -0.582331 -3.68865 -4.85525
10.7209 77.7874 -38.38 179.54 0.2082 -189.178 9.15381 18.354 -1.21679 3.07316 -6.57112 0.448844 -2.45534 1.88501 -0.25147 -3.76041 -1.71862 -0.679069 -0.0 0.0 0.0 -0.0 0.0 0.0 2.84982e-15 -1.11884e-13 6.50546e-14 49.6196 5.06977 -34.385 -24.4072 -19.8772 50.9254 -0.0886046 -8.44666 -1.19591 9.27189e-11 -1.35266e-09 -7.34343e-10 1.66304e-10 -2.34644e-09 -1.26829e-09 9.27257e-11 -1.35266e-09 -7.34349e-10 7.73091 5.47488 0.417314 9.27201e-11 -1.35266e-09 -7.34345e-10 2.90554 0.965183 0.102902 9.27297e-11 -1.35266e-09 -7.34343e-10 10.2786 0.731801 0.0259123 9.27185e-11 -1.35266e-09 -7.34332e-10 2.22167 -0.733487 -0.20892 2.83475e-15 -1.11883e-13 6.48535e-14 -33.6272 -4.14774 37.9019 27.6373 -42.2352 -87.8182 0.0894279 -8.46992 1.19929 -1.07617e-09 -2.26061e-09 2.49471e-10 -1.85936e-09 -3.89594e-09 4.22513e-10 -1.07616e-09 -2.2606e-09 2.49493e-10 -7.73091 5.47488 -0.417314 -1.07617e-09 -2.2606e-09 2.49477e-10 -2.90554 0.965183 -0.102902 -1.07618e-09 -2.2606e-09 2.4948e-10 -10.2786 0.731801 -0.0259123 -1.07617e-09 -2.2606e-09 2.49476e-10 -2.22167 -0.733487 0.20892 -2.03217e-16 0.0 -3.88251e-19 0.852906 -26.8759 10.352 -0.358187 43.5874 0.847398 2.33929 14.5618 -11.9552 2.03217e-16 0.0 3.88251e-19 8.58625 -31.1659 8.2947 0.532312 47.3923 -0.926758 -0.659878 -7.04791 -3.88102
10.5425 76.0564 -40.4141 179.512 0.8318 -189.335 9.03971 18.2453 -0.615866 3.03923 -6.73572 0.763514 -2.51015 2.0164 -0.120675 -3.74279 -2.46383 -0.975683 -0.0 0.0 0.0 -0.0 0.0 0.0 -2.90905e-15 -1.7771e-13 5.47155e-14 52.5654 3.77187 -33.9755 -24.4927 -20.0474 51.2079 -0.0941515 -8.71884 -1.235 3.87327e-10 -2.25732e-09 -1.19153e-09 6.79353e-10 -3.91477e-09 -2.05791e-09 3.87335e-10 -2.25732e-09 -1.19154e-09 7.73091 5.47488 0.417314 3.87329e-10 -2.25732e-09 -1.19154e-09 2.90554 0.965183 0.102902 3.87339e-10 -2.25732e-09 -1.19153e-09 10.2786 0.731801 0.0259123 3.87329e-10 -2.25732e-09 -1.19152e-09 2.22167 -0.733487 -0.20892 -2.95525e-15 -1.77717e-13 5.4467e-14 -36.8456 -5.14745 39.0458 27.17 -43.5429 -90.5432 0.0812703 -8.1059 1.14695 -1.41709e-09 -3.66449e-09 8.00514e-10 -2.45149e-09 -6.32578e-09 1.37321e-09 -1.41708e-09 -3.66449e-09 8.00536e-10 -7.73091 5.47488 -0.417314 -1.41708e-09 -3.66448e-09 8.0052e-10 -2.90554 0.965183 -0.102902 -1.41709e-09 -3.66448e-09 8.00523e-10 -10.2786 0.731801 -0.0259123 -1.41709e-09 -3.66448e-09 8.0052e-10 -2.22167 -0.733487 0.20892 -2.03217e-16 0.0 -3.88251e-19 0.943654 -26.7261 10.1998 -0.426551 46.141 0.918825 2.34703 12.6218 -14.7147 2.03217e-16 0.0 3.88251e-19 8.12572 -31.426 7.82524 0.584501 49.3111 -1.00006 -0.571204 -9.64928 -2.85915
10.3652 74.3972 -42.2797 179.488 1.405 -189.464 8.91339 18.3896 0.0559365 3.02227 -7.05201 1.01086 -2.46118 2.19253 -0.125174 -3.89984 -3.44163 -1.15884 -0.0 0.0 0.0 -0.0 0.0 0.0 -2.28882e-14 -2.09166e-13 3.94091e-14 55.5072 2.21619 -33.0119 -24.5064 -20.0736 51.2623 -0.102187 -9.09075 -1.28852 5.02952e-10 -2.29276e-09 -1.09528e-09 8.77717e-10 -3.97522e-09 -1.8911e-09 5.02958e-10 -2.29276e-09 -1.09529e-09 7.73091 5.47488 0.417314 5.02953e-10 -2.29276e-09 -1.09528e-09 2.90554 0.965183 0.102902 5.02964e-10 -2.29276e-09 -1.09528e-09 10.2786 0.731801 0.0259123 5.02954e-10 -2.29276e-09 -1.09527e-09 2.22167 -0.733487 -0.20892 -2.29711e-14 -2.0918e-13 3.91342e-14 -40.6689 -6.33318 39.3783 26.6806 -44.7264 -93.0536 0.0679145 -7.48854 1.05837 -1.32444e-09 -3.95539e-09 1.14959e-09 -2.29314e-09 -6.83337e-09 1.97841e-09 -1.32443e-09 -3.95538e-09 1.14961e-09 -7.73091 5.47488 -0.417314 -1.32443e-09 -3.95538e-09 1.1496e-09 -2.90554 0.965183 -0.102902 -1.32444e-09 -3.95537e-09 1.1496e-09 -10.2786 0.731801 -0.0259123 -1.32444e-09 -3.95538e-09 1.14959e-09 -2.22167 -0.733487 0.20892 -2.03217e-16 0.0 -3.88251e-19 1.05071 -27.095 10.0929 -0.519288 49.3121 1.0348 2.07929 10.5141 -17.5178 2.03217e-16 0.0 3.88251e-19 7.67507 -32.2145 7.28103 0.671303 52.1831 -1.12905 -0.293502 -11.2761 -1.60765
10.1911 72.8404 -43.9828 179.464 1.916 -189.541 8.75376 18.7279 0.796084 3.02011 -7.495 1.22601 -2.34387 2.4136 -0.218663 -4.17088 -4.61857 -1.29185 -0.0 0.0 0.0 -0.0 0.0 0.0 -5.23328e-14 -2.22542e-13 1.89653e-14 58.5422 0.378798 -31.6284 -24.4614 -19.9843 51.1111 -0.111894 -9.51343 -1.3495 5.39786e-10 -1.85101e-09 -6.7912e-10 9.3678e-10 -3.20775e-09 -1.17139e-09 5.39789e-10 -1.851e-09 -6.79132e-10 7.73091 5.47488 0.417314 5.39787e-10 -1.851e-09 -6.79124e-10 2.90554 0.965183 0.102902 5.39798e-10 -1.851e-09 -6.7912e-10 10.2786 0.731801 0.0259123 5.39789e-10 -1.851e-09 -6.79113e-10 2.22167 -0.733487 -0.20892 -5.24611e-14 -2.22563e-13 1.86733e-14 -45.0487 -7.72336 39.0601 26.1859 -45.8762 -95.3505 0.0529215 -6.67825 0.942631 -9.75767e-10 -3.66052e-09 1.42393e-09 -1.69194e-09 -6.33009e-09 2.45667e-09 -9.75762e-10 -3.66052e-09 1.42394e-09 -7.73091 5.47488 -0.417314 -9.75764e-10 -3.66051e-09 1.42393e-09 -2.90554 0.965183 -0.102902 -9.75775e-10 -3.66051e-09 1.42393e-09 -10.2786 0.731801 -0.0259123 -9.75771e-10 -3.66051e-09 1.42392e-09 -2.22167 -0.733487 0.20892 -2.03217e-16 0.0 -3.88251e-19 1.14138 -27.8795 9.95687 -0.653517 53.0338 1.20394 1.50152 8.1654 -20.5478 2.03217e-16 0.0 3.88251e-19 7.17082 -33.4446 6.6237 0.812008 55.8144 -1.32536 0.123423 -12.3466 -0.136196
